<svg width="24" height="24" viewBox="0 0 24 24" fill="none" xmlns="http://www.w3.org/2000/svg">
<path d="M22 3H2V18.6711H22V3Z" stroke="#222222" stroke-linecap="round" stroke-linejoin="round"/>
<path d="M15.1797 3.46875V18.3563" stroke="#222222" stroke-linecap="round" stroke-linejoin="round"/>
<path d="M18.5668 15.6958C19.3199 15.6958 19.9304 15.0643 19.9304 14.2854C19.9304 13.5065 19.3199 12.875 18.5668 12.875C17.8136 12.875 17.2031 13.5065 17.2031 14.2854C17.2031 15.0643 17.8136 15.6958 18.5668 15.6958Z" fill="#222222"/>
<path d="M17.9609 10.207H19.1731" stroke="#222222" stroke-linecap="round" stroke-linejoin="round"/>
<path d="M17.9609 7.38672H19.1731" stroke="#222222" stroke-linecap="round" stroke-linejoin="round"/>
<path d="M5.33594 6.7729L5.33594 14.9219H12.0026V6.7729H5.33594Z" stroke="#222222" stroke-linecap="round" stroke-linejoin="round"/>
<path d="M4.59943 19.2695V20.1346C4.59943 20.611 4.19034 20.9996 3.69034 20.9996C3.19034 20.9996 2.78125 20.611 2.78125 20.1346V19.2695" fill="#222222"/>
<path d="M21.2947 19.2695V20.1346C21.2947 20.611 20.8857 20.9996 20.3857 20.9996C19.8857 20.9996 19.4766 20.611 19.4766 20.1346V19.2695" fill="#222222"/>
</svg>
