<svg width="150" height="59" viewBox="0 0 150 59" fill="none" xmlns="http://www.w3.org/2000/svg">
<g opacity="0.12">
<path d="M135.958 17.153C138.273 15.5598 139.793 12.8886 139.793 9.86068C139.793 4.97935 135.846 1.02148 130.976 1.02148H113.679V33.9801H132.181C137.051 33.9801 141 30.0222 141 25.1396C141 21.6145 138.939 18.5698 135.959 17.153H135.958ZM129.286 7.37751C131.199 7.37751 132.752 8.93207 132.752 10.8511C132.752 12.7702 131.199 14.3234 129.286 14.3234H120.715V7.37751H129.286ZM130.509 27.6254H120.715V20.6794H130.509C132.423 20.6794 133.974 22.234 133.974 24.1518C133.974 26.0695 132.423 27.6254 130.509 27.6254Z" fill="#00307C"/>
<path d="M16.0378 1.02344H9V33.9808H16.0378V1.02344Z" fill="#00307C"/>
<path d="M26.1454 16.7016L39.3267 1.02344H30.0864L16.9282 16.7003L31.4318 33.9808H40.6721L26.1454 16.7016Z" fill="#00307C"/>
<path d="M39.2671 17.5934V17.4994C39.2671 7.87709 46.5028 0 56.8701 0C63.2384 0 67.0458 2.12898 70.1825 5.22134L65.4563 10.6835C62.8504 8.315 60.1982 6.86605 56.8225 6.86605C51.1339 6.86605 47.0297 11.6031 47.0297 17.4028V17.5006C47.0297 23.3003 51.0324 28.1352 56.8225 28.1352C60.6813 28.1352 63.047 26.5884 65.694 24.1735L70.4202 28.9557C66.9507 32.6804 63.0907 35 56.5809 35C46.6455 35 39.2671 27.3122 39.2671 17.5947V17.5934Z" fill="#00307C"/>
<path d="M111.635 30.9589L97.0808 1.47515C96.5219 0.34433 95.1546 -0.119332 94.0264 0.440926C92.8982 0.999896 92.4356 2.37156 92.9946 3.50238L107.548 32.9848C107.945 33.7898 108.754 34.2573 109.593 34.2573C109.932 34.2573 110.278 34.1813 110.603 34.0203C111.731 33.4614 112.194 32.0897 111.635 30.9589Z" fill="#0083CC"/>
<path d="M86.5226 0.492188L69.9951 33.9737H75.0824L88.3819 7.03239L96.2807 23.0339H86.8412L90.9249 14.7614L88.3819 9.60829L77.8451 30.9535C77.2861 32.0843 77.7487 33.4547 78.8782 34.0149C79.2033 34.1759 79.5477 34.2519 79.8869 34.2519C80.726 34.2519 81.5343 33.7857 81.9313 32.9794L84.5848 27.6035H98.5359L101.68 33.9737H106.767L90.2387 0.492188H86.5213H86.5226Z" fill="#0083CC"/>
<path d="M4.04561 44.9091V58H1.67416V44.9091H4.04561ZM17.7314 44.9091V58H15.622L9.45373 49.0831H9.34506V58H6.97361V44.9091H9.09577L15.2577 53.8324H15.3728V44.9091H17.7314ZM20.1001 46.897V44.9091H30.5447V46.897H26.4986V58H24.1463V46.897H20.1001ZM32.9182 58V44.9091H41.4324V46.897H35.2897V50.451H40.9914V52.4389H35.2897V56.0121H41.4836V58H32.9182ZM44.2118 58V44.9091H49.1209C50.1266 44.9091 50.9703 45.0838 51.6522 45.4332C52.3382 45.7827 52.856 46.2727 53.2054 46.9034C53.5591 47.5298 53.736 48.2607 53.736 49.0959C53.736 49.9354 53.557 50.6641 53.199 51.282C52.8453 51.8956 52.3233 52.3707 51.633 52.7074C50.9426 53.0398 50.0946 53.206 49.0889 53.206H45.5925V51.2372H48.7693C49.3574 51.2372 49.8389 51.1562 50.2139 50.9943C50.5889 50.8281 50.8659 50.5874 51.0449 50.272C51.2281 49.9524 51.3198 49.5604 51.3198 49.0959C51.3198 48.6314 51.2281 48.2351 51.0449 47.907C50.8617 47.5746 50.5826 47.3232 50.2076 47.1527C49.8326 46.978 49.3489 46.8906 48.7566 46.8906H46.5833V58H44.2118ZM50.9746 52.0682L54.2154 58H51.5691L48.3858 52.0682H50.9746ZM67.0367 44.9091V58H64.9273L58.759 49.0831H58.6503V58H56.2788V44.9091H58.401L64.5629 53.8324H64.678V44.9091H67.0367ZM71.6618 58H69.1305L73.7392 44.9091H76.6667L81.2818 58H78.7505L75.2541 47.5938H75.1518L71.6618 58ZM71.7449 52.8672H78.6483V54.772H71.7449V52.8672ZM81.2087 46.897V44.9091H91.6533V46.897H87.6072V58H85.2549V46.897H81.2087ZM96.3983 44.9091V58H94.0268V44.9091H96.3983ZM111.024 51.4545C111.024 52.8651 110.76 54.0732 110.231 55.0788C109.707 56.0803 108.991 56.8473 108.083 57.38C107.18 57.9126 106.155 58.179 105.009 58.179C103.862 58.179 102.835 57.9126 101.928 57.38C101.024 56.843 100.309 56.0739 99.7801 55.0724C99.256 54.0668 98.9939 52.8608 98.9939 51.4545C98.9939 50.044 99.256 48.8381 99.7801 47.8366C100.309 46.831 101.024 46.0618 101.928 45.5291C102.835 44.9964 103.862 44.7301 105.009 44.7301C106.155 44.7301 107.18 44.9964 108.083 45.5291C108.991 46.0618 109.707 46.831 110.231 47.8366C110.76 48.8381 111.024 50.044 111.024 51.4545ZM108.639 51.4545C108.639 50.4616 108.484 49.6243 108.173 48.9425C107.866 48.2564 107.44 47.7386 106.894 47.3892C106.349 47.0355 105.72 46.8587 105.009 46.8587C104.297 46.8587 103.669 47.0355 103.123 47.3892C102.578 47.7386 102.149 48.2564 101.838 48.9425C101.532 49.6243 101.378 50.4616 101.378 51.4545C101.378 52.4474 101.532 53.2869 101.838 53.973C102.149 54.6548 102.578 55.1726 103.123 55.5263C103.669 55.8757 104.297 56.0504 105.009 56.0504C105.72 56.0504 106.349 55.8757 106.894 55.5263C107.44 55.1726 107.866 54.6548 108.173 53.973C108.484 53.2869 108.639 52.4474 108.639 51.4545ZM124.384 44.9091V58H122.274L116.106 49.0831H115.997V58H113.626V44.9091H115.748L121.91 53.8324H122.025V44.9091H124.384ZM129.009 58H126.477L131.086 44.9091H134.014L138.629 58H136.097L132.601 47.5938H132.499L129.009 58ZM129.092 52.8672H135.995V54.772H129.092V52.8672ZM140.713 58V44.9091H143.084V56.0121H148.85V58H140.713Z" fill="#00307C"/>
</g>
</svg>
