<svg width="20" height="20" viewBox="0 0 20 20" fill="none" xmlns="http://www.w3.org/2000/svg">
<path d="M10 0C4.47712 0 0 4.47708 0 9.99995C0 15.5228 4.47712 19.9999 10 19.9999C15.523 19.9999 20.0002 15.5228 20.0002 9.99995C20.0002 4.47708 15.5229 0 10 0ZM7.33203 14.8345H5.13642V7.7411H7.33203V14.8345ZM6.22373 6.81222C5.5067 6.81222 4.92534 6.2262 4.92534 5.50334C4.92534 4.78049 5.5067 4.19447 6.22373 4.19447C6.94076 4.19447 7.52202 4.78049 7.52202 5.50334C7.52202 6.2262 6.94076 6.81222 6.22373 6.81222ZM15.5601 14.8345H13.3751V11.1111C13.3751 10.0898 12.9872 9.51977 12.1796 9.51977C11.3008 9.51977 10.8417 10.1135 10.8417 11.1111V14.8345H8.73587V7.7411H10.8417V8.69642C10.8417 8.69642 11.4751 7.52467 12.9793 7.52467C14.4834 7.52467 15.5601 8.44306 15.5601 10.343V14.8344V14.8345Z" fill="url(#paint0_linear_60964_325)"/>
<defs>
<linearGradient id="paint0_linear_60964_325" x1="2.93139" y1="2.93022" x2="17.0716" y2="17.0711" gradientUnits="userSpaceOnUse">
<stop stop-color="#2489BE"/>
<stop offset="1" stop-color="#0575B3"/>
</linearGradient>
</defs>
</svg>
