<svg width="48" height="48" viewBox="0 0 48 48" fill="none" xmlns="http://www.w3.org/2000/svg">
<path d="M23.8816 7.5051C23.8996 7.35709 23.9275 7.21175 23.9275 7.05928C23.9275 4.84354 22.1157 3.04688 19.8814 3.04688C17.647 3.04688 15.8352 4.84354 15.8352 7.05928C15.8352 7.21175 15.8631 7.35709 15.8811 7.5051H11.7891V14.6383H27.9736V7.5051H23.8816Z" fill="white" fill-opacity="0.2"/>
<path d="M26.4453 8.40234H34.2634V18.2104" stroke="white" stroke-width="1.5" stroke-miterlimit="10" stroke-linejoin="round"/>
<path d="M34.2676 36.935V46.7431H1.89844V8.40234H9.99073" stroke="white" stroke-width="1.5" stroke-miterlimit="10" stroke-linejoin="round"/>
<path d="M22.0848 5.7219C22.1027 5.57389 22.1306 5.42855 22.1306 5.27608C22.1306 3.06034 20.3188 1.26367 18.0845 1.26367C15.8501 1.26367 14.0383 3.06034 14.0383 5.27608C14.0383 5.42855 14.0662 5.57389 14.0842 5.7219H9.99219V12.8551H26.1768V5.7219H22.0848Z" stroke="white" stroke-width="1.5" stroke-miterlimit="10" stroke-linejoin="round"/>
<path d="M40.1452 15.5938L16.5023 39.0396L15.8594 43.9267L20.7876 43.2892L44.4315 19.8433L40.1452 15.5938Z" fill="white" fill-opacity="0.2"/>
<path d="M38.3484 13.8086L14.7054 37.2544L14.0625 42.1415L18.9907 41.504L42.6346 18.0582L38.3484 13.8086Z" stroke="white" stroke-width="1.5" stroke-miterlimit="10" stroke-linejoin="round"/>
<path d="M39.6791 15.1333L43.9653 10.8828L46.1079 13.0076L44.5713 14.5323C46.2698 16.2166 46.2698 18.946 44.5713 20.6303L32.0391 33.0563" stroke="white" stroke-width="1.5" stroke-miterlimit="10" stroke-linejoin="round"/>
<path d="M34.5312 17.584L38.4758 21.4956" stroke="white" stroke-width="1.5" stroke-miterlimit="10" stroke-linejoin="round"/>
<path d="M15.4844 36.4746L19.7706 40.7251" stroke="white" stroke-width="1.5" stroke-miterlimit="10" stroke-linejoin="round"/>
<path d="M18.0866 5.7247C18.5832 5.7247 18.9858 5.32549 18.9858 4.83305C18.9858 4.34061 18.5832 3.94141 18.0866 3.94141C17.5901 3.94141 17.1875 4.34061 17.1875 4.83305C17.1875 5.32549 17.5901 5.7247 18.0866 5.7247Z" fill="white"/>
<path d="M21.6825 20.8789H8.19531" stroke="white" stroke-width="1.5" stroke-miterlimit="10" stroke-linejoin="round"/>
<path d="M18.0859 27.1211H8.19531" stroke="white" stroke-width="1.5" stroke-miterlimit="10" stroke-linejoin="round"/>
<path d="M13.5902 33.3652H8.19531" stroke="white" stroke-width="1.5" stroke-miterlimit="10" stroke-linejoin="round"/>
</svg>
