<svg width="24" height="24" viewBox="0 0 24 24" fill="none" xmlns="http://www.w3.org/2000/svg">
<path d="M7.0163 18.3246C6.91332 18.3246 6.81113 18.2853 6.73331 18.2075L4.11722 15.5914C3.96786 15.4413 3.96 15.2015 4.10071 15.0427L11.17 7.08364C11.2431 7.00189 11.3476 6.95236 11.4577 6.94922C11.5685 6.95944 11.6746 6.98852 11.7525 7.06635L15.2592 10.5731C15.337 10.6509 15.3795 10.757 15.3763 10.8679C15.3732 10.9779 15.3244 11.0817 15.2419 11.1556L7.28278 18.224C7.20653 18.2908 7.1122 18.3246 7.01709 18.3246H7.0163ZM4.94968 15.2919L7.03281 17.3751L14.3929 10.8388L11.486 7.93182L4.94968 15.2919Z" fill="#222222" stroke="#222222" stroke-width="0.3"/>
<path d="M15.6779 11.3115C15.4248 11.3115 15.1701 11.291 14.9138 11.2494C14.6961 11.2132 14.5483 11.0081 14.5845 10.7903C14.6198 10.5726 14.825 10.4216 15.0435 10.4609C16.7037 10.7314 18.3309 9.91147 19.0989 8.41712C19.8662 6.92278 19.5832 5.12029 18.3954 3.93173C17.2076 2.74474 15.4043 2.46096 13.91 3.22897C12.4149 3.99618 11.5942 5.62574 11.867 7.28359C11.9031 7.50134 11.7553 7.7065 11.5376 7.74266C11.3214 7.78197 11.1139 7.63104 11.0785 7.41329C10.7484 5.41114 11.7396 3.44357 13.5453 2.51599C15.3517 1.59077 17.5276 1.93114 18.9622 3.36574C20.3968 4.80035 20.7379 6.97702 19.8119 8.78187C19.0038 10.3556 17.4034 11.3115 15.6795 11.3115H15.6779Z" fill="#222222" stroke="#222222" stroke-width="0.3"/>
<path d="M8.21391 21.9983C7.44512 21.9983 6.72114 21.698 6.17795 21.1549L5.39816 20.3751C4.85419 19.8311 4.55469 19.1087 4.55469 18.3391C4.55469 17.5695 4.85419 16.8463 5.39816 16.3024C5.55459 16.1459 5.80771 16.1459 5.96414 16.3024C6.12057 16.4588 6.12057 16.7119 5.96414 16.8675C5.57188 17.2606 5.35492 17.7833 5.35492 18.3383C5.35492 18.8933 5.57109 19.4152 5.96414 19.8083L6.74393 20.5881C7.53002 21.3742 8.89938 21.3742 9.68467 20.5881L14.8052 15.4667C15.9576 14.3136 17.8348 14.3128 18.9888 15.4667C19.1452 15.6232 19.1452 15.8763 18.9888 16.0327C18.8323 16.1892 18.5792 16.1892 18.4228 16.0327C17.5809 15.19 16.2115 15.1916 15.3704 16.0327L10.2499 21.1541C9.7059 21.698 8.9827 21.9975 8.21391 21.9975V21.9983Z" fill="#222222" stroke="#222222" stroke-width="0.3"/>
<path d="M9.87688 12.8391C9.77469 12.8391 9.67249 12.7998 9.59389 12.722C9.43745 12.5656 9.43745 12.3125 9.59389 12.1568L10.8092 10.9415C10.9656 10.7851 11.2187 10.7851 11.3752 10.9415C11.5316 11.098 11.5316 11.3511 11.3752 11.5067L10.1599 12.722C10.082 12.7998 9.97985 12.8391 9.87688 12.8391Z" fill="#222222" stroke="#222222" stroke-width="0.3"/>
</svg>
