<svg width="24" height="24" viewBox="0 0 24 24" fill="none" xmlns="http://www.w3.org/2000/svg">
<path d="M18.8346 0H5.16543C4.52148 0 4 0.516803 4 1.15498V21.3573C4 21.9289 4.41877 22.3987 4.9679 22.4927V23.2052C4.9679 23.6437 5.32741 24 5.76988 24H6.18469C6.62716 24 6.98667 23.6437 6.98667 23.2052V22.5122H17.2227V23.2052C17.2227 23.6437 17.5822 24 18.0247 24H18.4395C18.882 24 19.2415 23.6437 19.2415 23.2052V22.4378C19.684 22.2734 20 21.8545 20 21.3573V1.15498C20 0.516803 19.4785 0 18.8346 0ZM6.2479 23.2052C6.2479 23.2365 6.22025 23.2679 6.18469 23.2679H5.76988C5.73827 23.2679 5.70667 23.2405 5.70667 23.2052V22.5122H6.24395V23.2052H6.2479ZM18.4988 23.2052C18.4988 23.2365 18.4711 23.2679 18.4356 23.2679H18.0207C17.9852 23.2679 17.9575 23.2405 17.9575 23.2052V22.5122H18.4948V23.2052H18.4988ZM19.0123 21.3573C19.0123 21.4551 18.9333 21.5334 18.8346 21.5334H5.16543C5.06667 21.5334 4.98765 21.4551 4.98765 21.3573V10.6454H19.0123V21.3573ZM19.0123 10.0581H4.98765V1.15498C4.98765 1.0571 5.06667 0.978793 5.16543 0.978793H18.8346C18.9333 0.978793 19.0123 1.0571 19.0123 1.15498V10.0581ZM7.27506 3.5863H6.30716C6.08198 3.5863 5.90025 3.76639 5.90025 3.98956V7.85775C5.90025 8.08091 6.08198 8.26101 6.30716 8.26101H7.27506C7.50025 8.26101 7.68198 8.08091 7.68198 7.85775V3.98956C7.68198 3.76639 7.50025 3.5863 7.27506 3.5863ZM7.08938 7.67765H6.48889V4.17357H7.08938V7.67765ZM6.30716 18.3347H7.27506C7.50025 18.3347 7.68198 18.1546 7.68198 17.9315V14.0633C7.68198 13.8401 7.50025 13.66 7.27506 13.66H6.30716C6.08198 13.66 5.90025 13.8401 5.90025 14.0633V17.9315C5.90025 18.1546 6.08198 18.3347 6.30716 18.3347ZM6.49284 14.2434H7.09333V17.7475H6.49284V14.2434Z" fill="#42413C"/>
</svg>
