<svg width="20" height="20" viewBox="0 0 20 20" fill="none" xmlns="http://www.w3.org/2000/svg">
<path d="M12.4997 1.6665H4.99967C4.55765 1.6665 4.13372 1.8421 3.82116 2.15466C3.5086 2.46722 3.33301 2.89114 3.33301 3.33317V16.6665C3.33301 17.1085 3.5086 17.5325 3.82116 17.845C4.13372 18.1576 4.55765 18.3332 4.99967 18.3332H14.9997C15.4417 18.3332 15.8656 18.1576 16.1782 17.845C16.4907 17.5325 16.6663 17.1085 16.6663 16.6665V5.83317L12.4997 1.6665Z" stroke="#222222" stroke-width="2" stroke-linecap="round" stroke-linejoin="round"/>
<path d="M11.667 1.6665V4.99984C11.667 5.44186 11.8426 5.86579 12.1551 6.17835C12.4677 6.49091 12.8916 6.6665 13.3337 6.6665H16.667" stroke="#222222" stroke-width="2" stroke-linecap="round" stroke-linejoin="round"/>
<path d="M8.33366 7.5H6.66699" stroke="#222222" stroke-width="2" stroke-linecap="round" stroke-linejoin="round"/>
<path d="M13.3337 10.8335H6.66699" stroke="#222222" stroke-width="2" stroke-linecap="round" stroke-linejoin="round"/>
<path d="M13.3337 14.1665H6.66699" stroke="#222222" stroke-width="2" stroke-linecap="round" stroke-linejoin="round"/>
</svg>
