<svg width="13" height="13" viewBox="0 0 13 13" fill="none" xmlns="http://www.w3.org/2000/svg">
<path d="M11.8908 13H8.61744C8.12836 13 7.73047 12.5881 7.73047 12.0817V8.75618H5.268V12.0817C5.268 12.5881 4.87009 13 4.38103 13H1.10926C0.497604 13 0 12.4848 0 11.8516V5.38854C0 4.81919 0.26538 4.27914 0.709885 3.94392L5.48349 0.343887C6.0915 -0.114619 6.9085 -0.114639 7.5165 0.343887L12.2901 3.94392C12.7346 4.27916 13 4.81921 13 5.38854V11.8516C13 12.4848 12.5024 13 11.8908 13ZM8.87444 11.8157H11.8561V5.38854C11.8561 5.19647 11.7665 5.01426 11.6166 4.90118L6.84293 1.30113C6.63782 1.14644 6.36218 1.14644 6.15705 1.30113L1.38347 4.90116C1.2335 5.01426 1.14396 5.19645 1.14396 5.38854V11.8157H4.12404V8.49014C4.12404 7.98381 4.52193 7.57188 5.01101 7.57188H7.98746C8.47653 7.57188 8.87444 7.98381 8.87444 8.49014V11.8157Z" fill="#666666"/>
</svg>
