<svg width="25" height="25" viewBox="0 0 25 25" fill="none" xmlns="http://www.w3.org/2000/svg">
<path d="M8.2332 22.6495L1.28125 23.9168L2.54856 16.9648" stroke="#222222" stroke-linecap="round" stroke-linejoin="round"/>
<path d="M8.23152 22.6492L23.8602 7.02046C24.1882 6.6925 24.1882 6.15399 23.8602 5.82603L19.37 1.33581C19.0421 1.00785 18.5036 1.00785 18.1756 1.33581L2.54688 16.9645L8.23152 22.6492Z" stroke="#222222" stroke-linecap="round" stroke-linejoin="round"/>
<path d="M16.6172 2.90234L22.3018 8.58699" stroke="#222222" stroke-linecap="round" stroke-linejoin="round"/>
<path d="M18.5382 8.61328L10.6995 16.4519L6.36719 20.7843" stroke="#222222" stroke-linecap="round" stroke-linejoin="round"/>
<path d="M1.82031 21.0547L4.14843 23.3828" stroke="#222222" stroke-linecap="round" stroke-linejoin="round"/>
<path d="M6.91041 12.6355L0.61843 6.34357C0.460523 6.18566 0.460523 5.93058 0.61843 5.77267L5.77267 0.61843C5.93057 0.460523 6.18566 0.460523 6.34356 0.61843L12.5708 6.84563" stroke="#222222" stroke-linecap="round" stroke-linejoin="round"/>
<path d="M18.34 12.5625L24.385 18.652C24.5429 18.8099 24.5429 19.065 24.385 19.2229L19.2267 24.3812C19.0688 24.5391 18.8137 24.5391 18.6558 24.3812L12.5703 18.3808" stroke="#222222" stroke-linecap="round" stroke-linejoin="round"/>
<path d="M4.02344 5.54173L7.65124 1.91797" stroke="#222222" stroke-linecap="round" stroke-linejoin="round"/>
<path d="M7.17188 5.82731L9.36637 3.63281" stroke="#222222" stroke-linecap="round" stroke-linejoin="round"/>
<path d="M8.88281 7.54606L11.0773 5.35156" stroke="#222222" stroke-linecap="round" stroke-linejoin="round"/>
<path d="M19.3203 20.8425L22.9441 17.2188" stroke="#222222" stroke-linecap="round" stroke-linejoin="round"/>
<path d="M17.0703 16.1319L19.2608 13.9414" stroke="#222222" stroke-linecap="round" stroke-linejoin="round"/>
<path d="M18.7891 17.8547L20.9836 15.6602" stroke="#222222" stroke-linecap="round" stroke-linejoin="round"/>
</svg>
