<svg width="24" height="24" viewBox="0 0 24 24" fill="none" xmlns="http://www.w3.org/2000/svg">
<path d="M18.9545 0H5.05823C3.92557 0 3 0.906914 3 2.026V20.4763C3 21.5913 3.92134 22.4982 5.05823 22.4982H6.11059V23.2345C6.11059 23.6589 6.46137 24 6.88824 24H8.81545C9.24653 24 9.5931 23.6547 9.5931 23.2345V22.4982H14.4069V23.2345C14.4069 23.6589 14.7577 24 15.1845 24H17.1118C17.5429 24 17.8894 23.6547 17.8894 23.2345V22.4982H18.9418C20.0744 22.4982 21 21.5913 21 20.4763V2.026C21 0.911074 20.0787 0 18.9418 0H18.9545ZM8.69711 23.1139H7.01503V22.6105H8.69711V23.1139ZM16.9977 23.1139H15.3156V22.6105H16.9977V23.1139ZM20.1082 20.4722C20.1082 21.1004 19.5884 21.6079 18.9545 21.6079H5.05823C4.42005 21.6079 3.90444 21.0962 3.90444 20.4722V20.1102H20.1082V20.4722ZM8.359 16.287H8.05471V15.688H15.958V16.287H8.359ZM14.7492 17.1732V19.22H9.25922V17.1732H14.7492ZM20.1082 19.22H15.6537V17.1732H16.089C16.5158 17.1732 16.8582 16.832 16.8582 16.416V15.559C16.8582 15.1388 16.5116 14.8019 16.089 14.8019H7.91946C7.4926 14.8019 7.15027 15.143 7.15027 15.559V16.416C7.15027 16.832 7.49683 17.1732 7.91946 17.1732H8.35478V19.22H3.90021V4.4805H9.386V7.95008C9.386 8.3869 9.74947 8.74467 10.1932 8.74467H10.5905L10.8948 10.2215C10.9624 10.5585 11.271 10.804 11.6175 10.804H12.3867C12.7375 10.804 13.0418 10.5585 13.1094 10.2215L13.4137 8.74467H13.811C14.2548 8.74467 14.6182 8.3869 14.6182 7.95008V4.4805H20.104V19.22H20.1082ZM10.4088 7.85855H10.2904V4.4805H13.7222V7.85855H10.4088ZM12.5008 8.74467L12.2599 9.91368H11.757L11.5161 8.74467H12.5008ZM20.1082 3.59438H3.90444V2.01768C3.90444 1.38949 4.42428 0.881953 5.05823 0.881953H18.9545C19.5926 0.881953 20.1082 1.39366 20.1082 2.01768V3.59438Z" fill="#222222"/>
</svg>
