<svg width="26" height="26" viewBox="0 0 26 26" fill="none" xmlns="http://www.w3.org/2000/svg">
<path d="M18.4189 6.58203C18.4752 6.58203 18.5302 6.58774 18.584 6.59668C18.5941 6.59836 18.6042 6.59957 18.6143 6.60156C18.6294 6.60457 18.6443 6.60862 18.6592 6.6123C18.6751 6.61623 18.6913 6.6193 18.707 6.62402C18.7572 6.63908 18.8051 6.65926 18.8516 6.68164C18.8656 6.68837 18.8798 6.69472 18.8936 6.70215C19.0393 6.7809 19.1631 6.89458 19.2539 7.03223C19.2786 7.06971 19.3002 7.10865 19.3193 7.14844C19.3411 7.19362 19.3601 7.24041 19.375 7.28906C19.3812 7.30935 19.3857 7.33002 19.3906 7.35059C19.4083 7.42497 19.4189 7.50225 19.4189 7.58203V18.415C19.4189 18.9673 18.9712 19.415 18.4189 19.415C17.8668 19.4149 17.4189 18.9672 17.4189 18.415V9.99609L8.29297 19.1221C7.90244 19.5126 7.26943 19.5126 6.87891 19.1221C6.48854 18.7315 6.48844 18.0985 6.87891 17.708L16.0049 8.58203H7.58594C7.03365 8.58203 6.58594 8.13432 6.58594 7.58203C6.58594 7.02975 7.03365 6.58203 7.58594 6.58203H18.4189Z" fill="white"/>
</svg>
