<svg width="25" height="20" viewBox="0 0 25 20" fill="none" xmlns="http://www.w3.org/2000/svg">
<path d="M24.2193 3.66484C23.9412 2.61597 23.1195 1.79009 22.0775 1.50929C20.189 1 12.6129 1 12.6129 1C12.6129 1 5.03683 1 3.14832 1.50929C2.10634 1.79009 1.28459 2.61597 1.00654 3.66484C0.5 5.56712 0.5 9.53409 0.5 9.53409C0.5 9.53409 0.5 13.5011 1.00654 15.4033C1.28459 16.4522 2.10634 17.2781 3.14832 17.5589C5.03821 18.0682 12.6129 18.0682 12.6129 18.0682C12.6129 18.0682 20.189 18.0682 22.0775 17.5589C23.1195 17.2781 23.9412 16.4522 24.2193 15.4033C24.7258 13.5024 24.7258 9.53409 24.7258 9.53409C24.7258 9.53409 24.7258 5.56712 24.2193 3.66484Z" fill="#E7211B"/>
<path d="M10.1348 13.1361L16.4665 9.53385L10.1348 5.93164V13.1361Z" fill="white"/>
</svg>
