<svg width="48" height="48" viewBox="0 0 48 48" fill="none" xmlns="http://www.w3.org/2000/svg">
<path d="M35.7955 46.9991C42.2582 46.9991 47.4973 41.7824 47.4973 35.3472C47.4973 28.912 42.2582 23.6953 35.7955 23.6953C29.3328 23.6953 24.0938 28.912 24.0938 35.3472C24.0938 41.7824 29.3328 46.9991 35.7955 46.9991Z" fill="#8CA0E5"/>
<path d="M21.6719 6.01758V10.8391" stroke="#8CA0E5" stroke-width="2" stroke-linejoin="round"/>
<path d="M6.34375 22.0898H10.3788" stroke="#8CA0E5" stroke-width="2" stroke-linejoin="round"/>
<path d="M18.9763 20.4337L13.6016 17.2676" stroke="#262728" stroke-width="2" stroke-linejoin="round"/>
<path d="M21.2699 24.5001C22.8298 24.5001 24.0944 23.2408 24.0944 21.6875C24.0944 20.1342 22.8298 18.875 21.2699 18.875C19.7099 18.875 18.4453 20.1342 18.4453 21.6875C18.4453 23.2408 19.7099 24.5001 21.2699 24.5001Z" stroke="#262728" stroke-width="2" stroke-linejoin="round"/>
<path d="M17.9147 41.0941C8.59368 39.503 1.5 31.419 1.5 21.6877C1.5 10.8153 10.353 2 21.2719 2C32.1909 2 41.0439 10.8153 41.0439 21.6877" stroke="#262728" stroke-width="2" stroke-miterlimit="10"/>
<path d="M33.3736 46.1964C39.8363 46.1964 45.0754 40.9796 45.0754 34.5445C45.0754 28.1093 39.8363 22.8926 33.3736 22.8926C26.9109 22.8926 21.6719 28.1093 21.6719 34.5445C21.6719 40.9796 26.9109 46.1964 33.3736 46.1964Z" stroke="#262728" stroke-width="2" stroke-linejoin="round"/>
<path d="M27.1797 33.4686L32.9741 38.9651L40.1646 31.1543" stroke="white" stroke-width="2" stroke-linejoin="round"/>
<path d="M23.7969 20.4343L32.1656 14.8574" stroke="#262728" stroke-width="2" stroke-linejoin="round"/>
<path d="M37.0049 21.6874C37.0049 13.0328 29.9597 6.01758 21.2681 6.01758C12.5765 6.01758 5.53125 13.0328 5.53125 21.6874C5.53125 29.3776 11.0997 35.7821 18.4435 37.108" stroke="#8CA0E5" stroke-width="2" stroke-miterlimit="10"/>
</svg>
