<svg width="24" height="24" viewBox="0 0 24 24" fill="none" xmlns="http://www.w3.org/2000/svg">
<path d="M22.7456 10.6092H17.3359V8.04999C19.0164 7.50816 20.7018 6.97118 22.3824 6.42935C23.012 6.22617 22.7456 5.22959 22.1063 5.43278C20.5178 5.94558 18.9244 6.45354 17.3359 6.96634V4.16529C17.3359 3.47833 16.7789 2.92199 16.0912 2.92199H10.0905C9.97431 2.92199 9.87745 2.82524 9.87745 2.70913V1.2433C9.87745 1.17073 9.86776 1.09816 9.85808 1.03044H15.7231C16.3866 1.03044 16.3915 0 15.7231 0H8.94273C8.89429 0 8.8507 0.00483818 8.80712 0.0193514C8.749 0.00967591 8.69088 0 8.63277 0H5.73173C5.04401 0 4.48705 0.556339 4.48705 1.2433V5.74239H2.24468C1.55696 5.74239 1 6.29873 1 6.98569V16.5112C1 17.1981 1.55696 17.7545 2.24468 17.7545H4.48705V21.2473C4.48705 21.8617 4.93262 22.3697 5.51864 22.4713V23.0953C5.51864 23.5936 5.92546 24 6.4243 24H8.55528C9.05412 24 9.46094 23.5936 9.46094 23.0953V22.4955H19.0213V23.0953C19.0213 23.5936 19.4281 24 19.9269 24H22.0579C22.5567 24 22.9636 23.5936 22.9636 23.0953V22.4713C23.5496 22.3697 24 21.8617 24 21.2473V11.8524C24 11.1655 23.443 10.6092 22.7553 10.6092H22.7456ZM4.48705 16.7241H2.24468C2.12845 16.7241 2.03159 16.6273 2.03159 16.5112V6.98569C2.03159 6.86959 2.12845 6.77283 2.24468 6.77283H4.48705V16.7241ZM8.42451 22.9647H6.55022V22.4906H8.42451V22.9647ZM16.3043 21.4602H5.73173C5.6155 21.4602 5.51864 21.3634 5.51864 21.2473V19.4138H16.3043V21.4554V21.4602ZM16.3043 18.3834H5.51864V16.5112H16.3043V18.3834ZM16.3043 15.4807H5.51864V13.6085H16.3043V15.4807ZM16.3043 10.6092V12.5781H5.51864V1.2433C5.51864 1.12719 5.6155 1.03044 5.73173 1.03044H8.63277C8.749 1.03044 8.84586 1.12719 8.84586 1.2433V2.70913C8.84586 3.39609 9.40282 3.95243 10.0905 3.95243H16.0912C16.2074 3.95243 16.3043 4.04918 16.3043 4.16529V10.6092ZM21.9223 22.9647H20.048V22.4906H21.9223V22.9647ZM22.9587 21.2473C22.9587 21.3634 22.8619 21.4602 22.7456 21.4602H17.3359V11.6444H22.7456C22.8619 11.6444 22.9587 11.7412 22.9587 11.8573V21.2522V21.2473Z" fill="black"/>
</svg>
