<svg width="24" height="24" viewBox="0 0 24 24" fill="none" xmlns="http://www.w3.org/2000/svg">
<path d="M22 2H2V22H22V2Z" stroke="#222222" stroke-linecap="round" stroke-linejoin="round"/>
<path d="M2.22656 5.63672L2.7508 6.08823C3.78111 6.97005 5.09323 7.4549 6.44777 7.4549H17.5781C19.0054 7.4549 20.3841 6.91551 21.4326 5.94884L21.769 5.63672" stroke="#222222" stroke-linecap="round" stroke-linejoin="round"/>
<path d="M2.22656 19.2734H21.772" stroke="#222222" stroke-linecap="round" stroke-linejoin="round"/>
<path d="M8.94531 13.6758H15.3302V16.6243C15.3302 18.1303 14.1089 19.3515 12.6029 19.3515H11.6726C10.1665 19.3515 8.94531 18.1303 8.94531 16.6243V13.6758Z" stroke="#222222" stroke-linecap="round" stroke-linejoin="round"/>
<path d="M8.29342 14.1719H7.15099C6.3116 14.1719 5.63281 14.8507 5.63281 15.6901C5.63281 16.3658 6.0813 16.9598 6.72978 17.1507L9.00251 17.8082" stroke="#222222" stroke-linecap="round" stroke-linejoin="round"/>
<path d="M14.9936 7.60547V10.3327H9.53906V7.60547" stroke="#222222" stroke-linecap="round" stroke-linejoin="round"/>
<path d="M12.1484 10.332V11.6957" stroke="#222222" stroke-linecap="round" stroke-linejoin="round"/>
<path d="M17.3047 4.72656H18.2138" stroke="#222222" stroke-linecap="round" stroke-linejoin="round"/>
</svg>
