<svg width="24" height="24" viewBox="0 0 24 24" fill="none" xmlns="http://www.w3.org/2000/svg">
<path d="M8.53906 22.76C8.53906 22.8928 8.64671 23.0005 8.77957 23.0005H15.5001C15.6328 23.0005 15.7406 22.8929 15.7406 22.76C15.7406 22.6272 15.6329 22.5195 15.5001 22.5195H8.77957C8.64684 22.5195 8.53906 22.6272 8.53906 22.76Z" fill="#222222" stroke="#222222" stroke-width="0.2"/>
<path d="M12.8096 18.4805H11.4749C11.3422 18.4805 11.2344 18.5881 11.2344 18.721C11.2344 18.8538 11.342 18.9615 11.4749 18.9615H12.8096C12.9423 18.9615 13.0501 18.8538 13.0501 18.721C13.0501 18.5881 12.9425 18.4805 12.8096 18.4805Z" fill="#222222" stroke="#222222" stroke-width="0.2"/>
<path d="M9.80913 10.5843C9.80913 10.4515 9.70148 10.3438 9.56862 10.3438H3.22488C3.09216 10.3438 2.98438 10.4514 2.98438 10.5843C2.98438 10.7171 3.09203 10.8248 3.22488 10.8248H9.56876C9.70148 10.8248 9.80926 10.7171 9.80926 10.5843H9.80913Z" fill="#222222" stroke="#222222" stroke-width="0.2"/>
<path d="M21.3014 10.5843C21.3014 10.4515 21.1938 10.3438 21.0609 10.3438H14.7171C14.5843 10.3438 14.4766 10.4514 14.4766 10.5843C14.4766 10.7171 14.5842 10.8248 14.7171 10.8248H21.0609C21.1937 10.8248 21.3014 10.7171 21.3014 10.5843Z" fill="#222222" stroke="#222222" stroke-width="0.2"/>
<path d="M22.2826 18.7526V8.00379C22.2826 7.87107 22.1749 7.76329 22.0421 7.76329C21.9092 7.76329 21.8016 7.87094 21.8016 8.00379V17.3199H2.48088V4.74506C2.48088 4.2525 2.88129 3.8521 3.37372 3.8521H11.9008V5.95072C11.9008 6.08345 12.0084 6.19123 12.1413 6.19123C12.2742 6.19123 12.3818 6.08358 12.3818 5.95072V3.8521H14.316C14.4487 3.8521 14.5565 3.74445 14.5565 3.6116C14.5565 3.47874 14.4488 3.37109 14.316 3.37109H3.37372C2.61623 3.37123 2 3.98745 2 4.74506V18.7526C2 19.51 2.61623 20.1262 3.37372 20.1262H20.9089C21.6664 20.1262 22.2826 19.51 22.2826 18.7526ZM2.48088 18.7526V17.8009H21.8016V18.7526C21.8016 19.2448 21.4012 19.6453 20.9087 19.6453H3.37372C2.88142 19.6453 2.48088 19.2449 2.48088 18.7526Z" fill="#222222" stroke="#222222" stroke-width="0.2"/>
<path d="M11.8984 14.5921V16.5767C11.8984 16.7095 12.0061 16.8172 12.1389 16.8172C12.2718 16.8172 12.3794 16.7096 12.3794 16.5767V14.5921C12.3794 14.4593 12.2718 14.3516 12.1389 14.3516C12.0061 14.3516 11.8984 14.4592 11.8984 14.5921Z" fill="#222222" stroke="#222222" stroke-width="0.2"/>
<path d="M22.8765 6.58741V2.67504C22.8765 2.30273 22.5737 2 22.2015 2H15.7374C15.3652 2 15.0625 2.30273 15.0625 2.67504V6.58439C15.0625 6.9567 15.3652 7.25943 15.7374 7.25943H16.3406C16.4794 7.25943 16.5921 7.3722 16.5921 7.51056V7.93381C16.5921 8.2939 17.0045 8.49397 17.2872 8.27723C18.4673 7.4142 18.5003 7.25929 18.7868 7.25929H22.205C22.5753 7.25929 22.8766 6.95775 22.8766 6.58741H22.8765ZM22.3956 6.58741C22.3956 6.69256 22.3101 6.77842 22.205 6.77842H18.7868C18.5743 6.77842 18.3642 6.84944 18.196 6.97823L17.0731 7.83574V7.51043C17.0731 7.10688 16.7445 6.77842 16.3408 6.77842H15.7375C15.6307 6.77842 15.5436 6.69138 15.5436 6.58426V2.67504C15.5436 2.56791 15.6307 2.48087 15.7375 2.48087H22.2017C22.3085 2.48087 22.3956 2.56791 22.3956 2.67504V6.58741Z" fill="#222222" stroke="#222222" stroke-width="0.2"/>
<path d="M20.762 3.63672H17.1624C17.0297 3.63672 16.9219 3.74437 16.9219 3.87722C16.9219 4.01008 17.0295 4.11772 17.1624 4.11772H20.762C20.8947 4.11772 21.0025 4.01008 21.0025 3.87722C21.0025 3.74437 20.8948 3.63672 20.762 3.63672Z" fill="#222222" stroke="#222222" stroke-width="0.2"/>
<path d="M20.762 5.14062H17.1624C17.0297 5.14062 16.9219 5.24827 16.9219 5.38113C16.9219 5.51398 17.0295 5.62163 17.1624 5.62163H20.762C20.8947 5.62163 21.0025 5.51398 21.0025 5.38113C21.0025 5.24827 20.8948 5.14062 20.762 5.14062Z" fill="#222222" stroke="#222222" stroke-width="0.2"/>
<path d="M8.20802 9.36988C8.34074 9.36988 8.44852 9.26223 8.44852 9.12938V8.38542C8.44852 7.7902 7.808 7.36748 7.63918 7.7348C7.58378 7.85571 7.63668 7.99841 7.7572 8.05381C7.88506 8.11236 7.96764 8.24259 7.96764 8.38542V9.12938C7.96764 9.2621 8.07529 9.36988 8.20815 9.36988H8.20802Z" fill="#222222" stroke="#222222" stroke-width="0.2"/>
<path d="M4.91838 9.12974V8.38578C4.91838 8.24295 5.00083 8.11272 5.12882 8.05417C5.24934 7.99877 5.30225 7.85594 5.24685 7.73516C5.07631 7.36627 4.4375 7.79266 4.4375 8.38578V9.12974C4.4375 9.26246 4.54515 9.37024 4.67801 9.37024C4.81086 9.37024 4.91851 9.26259 4.91851 9.12974H4.91838Z" fill="#222222" stroke="#222222" stroke-width="0.2"/>
<path d="M6.85657 7.71884L6.43818 8.13748L6.01979 7.71884C5.92593 7.62497 5.77364 7.62497 5.67977 7.71884C5.58591 7.8127 5.58591 7.96498 5.67977 8.05885L6.26831 8.6475C6.36217 8.74137 6.51446 8.74137 6.60832 8.6475L7.19685 8.05885C7.29072 7.96498 7.29072 7.8127 7.19685 7.71884C7.10299 7.62497 6.9507 7.62497 6.85684 7.71884H6.85657Z" fill="#222222" stroke="#222222" stroke-width="0.2"/>
<path d="M13.0444 11.9731C13.9139 11.9731 14.6214 12.6807 14.6214 13.5501C14.6214 13.6828 14.729 13.7906 14.8619 13.7906C14.9947 13.7906 15.1024 13.683 15.1024 13.5501C15.1024 12.4155 14.1792 11.4922 13.0446 11.4922H12.7561C12.6234 11.4922 12.5156 11.5998 12.5156 11.7327C12.5156 11.8655 12.6233 11.9732 12.7561 11.9732H13.0446L13.0444 11.9731Z" fill="#222222" stroke="#222222" stroke-width="0.2"/>
<path d="M12.6819 12.3712C12.5881 12.2773 12.4358 12.2773 12.3419 12.3712L12.0402 12.6727L11.7385 12.3712C11.6447 12.2773 11.4924 12.2773 11.3985 12.3712C11.3047 12.465 11.3047 12.6173 11.3985 12.7112L11.7997 13.1122V13.6273C11.7997 13.76 11.9074 13.8678 12.0402 13.8678C12.1731 13.8678 12.2807 13.7601 12.2807 13.6273V13.1122L12.6819 12.7112C12.7758 12.6173 12.7758 12.465 12.6819 12.3712Z" fill="#222222" stroke="#222222" stroke-width="0.2"/>
<path d="M9.09194 13.7907C9.22466 13.7907 9.33244 13.6831 9.33244 13.5502C9.33244 12.6808 10.0398 11.9732 10.9093 11.9732H11.1978C11.3305 11.9732 11.4383 11.8655 11.4383 11.7327C11.4383 11.5998 11.3307 11.4922 11.1978 11.4922H10.9093C9.7746 11.4922 8.85156 12.4155 8.85156 13.5501C8.85156 13.6828 8.95921 13.7906 9.09207 13.7906L9.09194 13.7907Z" fill="#222222" stroke="#222222" stroke-width="0.2"/>
<path d="M10.3178 9.51928C10.3178 10.4746 11.0951 11.2519 12.0505 11.2519C13.0058 11.2519 13.783 10.4745 13.783 9.51928C13.783 9.48266 13.783 7.97426 13.783 8.06051C13.783 7.58581 13.3968 7.19985 12.9222 7.19985H12.7841C12.333 6.67001 11.1007 6.79354 10.646 7.37576C10.2456 7.88775 10.2991 8.61188 10.318 9.51915L10.3178 9.51928ZM12.0506 10.771C11.3603 10.771 10.7988 10.2097 10.7988 9.51928V9.42923C10.9253 9.3838 11.1968 9.08199 12.1094 9.01137C12.3095 8.99574 12.483 8.91133 12.6234 8.78714C12.8656 8.9519 13.0931 9.15183 13.3022 9.38486V9.51928C13.3022 10.2097 12.7408 10.771 12.0506 10.771ZM13.3021 8.06051V8.70417C13.1742 8.59088 13.0398 8.49085 12.9026 8.39698C13.009 8.16055 13.0342 7.94341 12.9969 7.69569C13.1694 7.7314 13.3021 7.87738 13.3021 8.06038V8.06051ZM11.025 7.67206C11.3083 7.30855 12.5868 7.04927 12.5307 7.95168C12.5143 8.21595 12.326 8.51211 12.0721 8.5318C11.471 8.57841 11.0659 8.72347 10.8019 8.86906C10.794 8.45291 10.7799 7.98529 11.0249 7.67206H11.025Z" fill="#222222" stroke="#222222" stroke-width="0.2"/>
<path d="M7.04028 4.70703H5.83381C5.52057 4.70703 5.26562 4.96184 5.26562 5.27534C5.26562 5.3436 5.26562 6.17578 5.26562 6.19652C5.26562 6.84241 5.79101 7.36779 6.43691 7.36779C7.08281 7.36779 7.60833 6.84241 7.60833 6.19652C7.60898 5.55102 7.60833 5.26838 7.60833 5.27534C7.60833 4.96197 7.35351 4.70703 7.04015 4.70703H7.04028ZM5.83381 5.18791H7.04028C7.08833 5.18791 7.12745 5.22703 7.12745 5.27521V5.52162H5.74651V5.27521C5.74651 5.22703 5.78563 5.18791 5.83368 5.18791H5.83381ZM6.43691 6.88679C6.0562 6.88679 5.74651 6.5771 5.74651 6.19639V6.00262H7.12745V6.19639C7.12745 6.5771 6.81762 6.88679 6.43691 6.88679Z" fill="#222222" stroke="#222222" stroke-width="0.2"/>
<path d="M8.20803 16.5066C8.34075 16.5066 8.44854 16.3989 8.44854 16.2661V15.5225C8.44854 14.9282 7.80815 14.504 7.63932 14.8712C7.58379 14.9917 7.6363 15.1348 7.75708 15.1902C7.88495 15.2494 7.96765 15.3797 7.96765 15.5224V16.2659C7.96765 16.3986 8.07531 16.5064 8.20816 16.5064L8.20803 16.5066Z" fill="#222222" stroke="#222222" stroke-width="0.2"/>
<path d="M4.4375 15.5227V16.2662C4.4375 16.399 4.54515 16.5067 4.67801 16.5067C4.81086 16.5067 4.91851 16.3991 4.91851 16.2662V15.5227C4.91851 15.3798 5.00122 15.2496 5.12909 15.1905C5.24973 15.1351 5.30238 14.992 5.24685 14.8715C5.07644 14.503 4.43763 14.9302 4.43763 15.5228L4.4375 15.5227Z" fill="#222222" stroke="#222222" stroke-width="0.2"/>
<path d="M6.85657 14.8595L6.43818 15.2781L6.01979 14.8595C5.92593 14.7656 5.77364 14.7656 5.67977 14.8595C5.58591 14.9533 5.58591 15.1056 5.67977 15.1995L6.26831 15.7881C6.36217 15.882 6.51446 15.882 6.60832 15.7881L7.19685 15.1995C7.29072 15.1056 7.29072 14.9533 7.19685 14.8595C7.10299 14.7656 6.9507 14.7656 6.85684 14.8595H6.85657Z" fill="#222222" stroke="#222222" stroke-width="0.2"/>
<path d="M7.60846 12.4156C7.60846 12.1025 7.35364 11.8477 7.04028 11.8477H5.83381C5.52057 11.8477 5.26562 12.1025 5.26562 12.4156C5.26562 12.4727 5.26562 13.3847 5.26562 13.3368C5.26562 13.9826 5.79101 14.508 6.43691 14.508C7.08281 14.508 7.60833 13.9826 7.60833 13.3368C7.60898 12.6913 7.60833 12.4086 7.60833 12.4156H7.60846ZM5.83381 12.3285H7.04028C7.08833 12.3285 7.12745 12.3677 7.12745 12.4156V12.662H5.74651V12.4156C5.74651 12.3677 5.78563 12.3285 5.83368 12.3285H5.83381ZM6.43691 14.0271C6.0562 14.0271 5.74651 13.7175 5.74651 13.3368V13.143H7.12745V13.3368C7.12745 13.7175 6.81762 14.0271 6.43691 14.0271Z" fill="#222222" stroke="#222222" stroke-width="0.2"/>
<path d="M19.6065 16.5066C19.7392 16.5066 19.847 16.3989 19.847 16.2661V15.5225C19.847 14.9282 19.2066 14.504 19.0378 14.8712C18.9822 14.9917 19.0347 15.1348 19.1555 15.1902C19.2834 15.2494 19.3661 15.3797 19.3661 15.5224V16.2659C19.3661 16.3986 19.4737 16.5064 19.6066 16.5064L19.6065 16.5066Z" fill="#222222" stroke="#222222" stroke-width="0.2"/>
<path d="M15.8438 15.5227V16.2662C15.8438 16.399 15.9514 16.5067 16.0843 16.5067C16.2171 16.5067 16.3248 16.3991 16.3248 16.2662V15.5227C16.3248 15.3798 16.4075 15.2496 16.5353 15.1905C16.656 15.1351 16.7086 14.992 16.6531 14.8715C16.4827 14.503 15.8439 14.9302 15.8439 15.5228L15.8438 15.5227Z" fill="#222222" stroke="#222222" stroke-width="0.2"/>
<path d="M18.255 14.8595L17.8366 15.2781L17.4182 14.8595C17.3244 14.7656 17.1721 14.7656 17.0782 14.8595C16.9843 14.9533 16.9843 15.1056 17.0782 15.1995L17.6667 15.7881C17.7606 15.882 17.9129 15.882 18.0068 15.7881L18.5953 15.1995C18.6892 15.1056 18.6892 14.9533 18.5953 14.8595C18.5014 14.7656 18.3491 14.7656 18.2553 14.8595H18.255Z" fill="#222222" stroke="#222222" stroke-width="0.2"/>
<path d="M19.0072 12.4156C19.0072 12.1025 18.7524 11.8477 18.439 11.8477H17.2325C16.9193 11.8477 16.6644 12.1025 16.6644 12.4156C16.6637 13.1394 16.6644 13.3432 16.6644 13.3368C16.6644 13.9826 17.1899 14.508 17.8358 14.508C18.4817 14.508 19.0071 13.9826 19.0071 13.3368C19.008 12.6914 19.0071 12.4086 19.0071 12.4156H19.0072ZM17.2325 12.3285H18.439C18.4871 12.3285 18.5262 12.3677 18.5262 12.4156V12.662H17.1452V12.4156C17.1452 12.3677 17.1844 12.3285 17.2324 12.3285H17.2325ZM17.8359 14.0271C17.4552 14.0271 17.1454 13.7175 17.1454 13.3368V13.143H18.5263V13.3368C18.5263 13.7175 18.2166 14.0271 17.8359 14.0271Z" fill="#222222" stroke="#222222" stroke-width="0.2"/>
<path d="M14.6877 21.9993C14.7985 21.926 14.8291 21.777 14.756 21.6661C14.5698 21.384 14.4505 21.0853 14.3913 20.7528C14.3681 20.6219 14.244 20.5355 14.1123 20.5583C13.9815 20.5815 13.8945 20.7064 13.9179 20.8373C13.9878 21.23 14.1349 21.5981 14.3546 21.931C14.4281 22.0426 14.5779 22.0719 14.6878 21.9993H14.6877Z" fill="#222222" stroke="#222222" stroke-width="0.2"/>
<path d="M9.93432 21.9303C10.1499 21.5987 10.2963 21.2317 10.3698 20.8397C10.3942 20.7095 10.3082 20.5836 10.1777 20.5592C10.0467 20.5335 9.92158 20.6205 9.89703 20.7514C9.83441 21.0858 9.71468 21.3855 9.53102 21.6678C9.45869 21.7793 9.49032 21.9283 9.60165 22.0006C9.71232 22.0727 9.86172 22.0417 9.93432 21.9301V21.9303Z" fill="#222222" stroke="#222222" stroke-width="0.2"/>
</svg>
