<svg width="24" height="24" viewBox="0 0 24 24" fill="none" xmlns="http://www.w3.org/2000/svg">
<path d="M17.179 13.462L14.8047 13.1544V13.1523L17.179 13.462Z" stroke="#222222" stroke-width="0.8" stroke-miterlimit="10" stroke-linecap="round"/>
<path d="M19.4453 14.7674V14.5078C19.457 14.5918 19.457 14.6799 19.4453 14.7674Z" stroke="#222222" stroke-width="0.8" stroke-miterlimit="10" stroke-linecap="round"/>
<path d="M19.4413 14.5075V14.7677C19.405 15.0429 19.2603 15.276 19.0539 15.4332C18.8483 15.5884 18.5822 15.6677 18.3032 15.6318L7.50416 14.2263L6.73696 14.8064L6.70268 14.8335C6.67389 14.8558 6.64166 14.8775 6.61013 14.8958C6.17339 15.1574 5.59748 15.0571 5.28073 14.6485C4.93861 14.208 5.02225 13.5798 5.46927 13.2416L6.60258 12.3803L6.93511 12.1289L14.8038 13.1515V13.1535L17.1781 13.4612L18.5692 13.6421C18.6659 13.6543 18.7591 13.6808 18.8455 13.718C19.1691 13.8583 19.3974 14.1592 19.4427 14.5068L19.4413 14.5075Z" stroke="#222222" stroke-width="0.8" stroke-miterlimit="10" stroke-linecap="round"/>
<path d="M19.4453 14.7674V14.5078C19.457 14.5918 19.457 14.6799 19.4453 14.7674Z" stroke="#222222" stroke-width="0.8" stroke-miterlimit="10" stroke-linecap="round"/>
<path d="M18.6766 2.22048L18.1994 5.80736L16.8316 5.62913L16.5444 5.59186C16.1474 5.53968 15.8677 5.17984 15.9205 4.78815L16.2091 2.62233C16.2605 2.22997 16.6246 1.95416 17.0215 2.00634L18.6766 2.22116V2.22048Z" stroke="#222222" stroke-width="0.8" stroke-miterlimit="10" stroke-linecap="round"/>
<path d="M18.1978 5.80874L17.179 13.4616L14.8047 13.1519L15.6926 6.49319C15.7659 5.9436 16.2739 5.55733 16.83 5.62984L18.1978 5.80807V5.80874Z" stroke="#222222" stroke-width="0.8" stroke-miterlimit="10" stroke-linecap="round"/>
<path d="M17.179 13.462L14.8047 13.1544V13.1523L17.179 13.462Z" stroke="#222222" stroke-width="0.8" stroke-miterlimit="10" stroke-linecap="round"/>
<path d="M20.9416 3.52596L19.4443 14.7637C19.4559 14.6763 19.4559 14.5882 19.4443 14.5041C19.399 14.1565 19.1707 13.8556 18.8471 13.7153C18.7607 13.6774 18.6675 13.6516 18.5708 13.6394L17.1797 13.4585L18.1985 5.80563L18.6757 2.21875L20.0682 2.40036C20.6235 2.47287 21.015 2.97638 20.9416 3.52596Z" stroke="#222222" stroke-width="0.8" stroke-miterlimit="10" stroke-linecap="round"/>
<path d="M19.4472 14.768V21.4999C19.4472 21.7764 19.221 22.0014 18.9399 22.0014H7.24954C6.96844 22.0014 6.74219 21.7764 6.74219 21.4999V14.8066L7.50938 14.2266L18.3084 15.632C18.5875 15.668 18.8535 15.588 19.0592 15.4335C19.2655 15.2769 19.4109 15.0431 19.4465 14.768H19.4472Z" stroke="#222222" stroke-width="0.8" stroke-miterlimit="10" stroke-linecap="round"/>
<path d="M6.7412 16.3555V18.4827L5.31787 19.8902L4.29906 20.8965C4.00288 21.1892 3.52089 21.1892 3.22265 20.8965C2.92578 20.6017 2.92578 20.1267 3.22265 19.8319L6.74051 16.3555H6.7412Z" stroke="#222222" stroke-width="0.8" stroke-miterlimit="10" stroke-linecap="round"/>
<path d="M5.32031 19.8906L6.66822 21.2229" stroke="#222222" stroke-width="0.8" stroke-miterlimit="10" stroke-linecap="round"/>
</svg>
