<svg width="117" height="43" viewBox="0 0 117 43" fill="none" xmlns="http://www.w3.org/2000/svg">
<path d="M103.756 12.7413C105.475 11.5577 106.604 9.57341 106.604 7.32407C106.604 3.69794 103.673 0.757812 100.058 0.757812H87.2158V25.2413H100.953C104.568 25.2413 107.5 22.3012 107.5 18.6741C107.5 16.0555 105.97 13.7937 103.757 12.7413H103.756ZM98.8031 5.47943C100.224 5.47943 101.376 6.63424 101.376 8.05982C101.376 9.48539 100.224 10.6392 98.8031 10.6392H92.4399V5.47943H98.8031ZM99.7113 20.5207H92.4399V15.3609H99.7113C101.132 15.3609 102.283 16.5157 102.283 17.9403C102.283 19.3649 101.132 20.5207 99.7113 20.5207Z" fill="white"/>
<path d="M14.7251 0.759277H9.5V25.2419H14.7251V0.759277Z" fill="white"/>
<path d="M22.2288 12.4059L32.015 0.759277H25.1547L15.3857 12.405L26.1536 25.2419H33.0138L22.2288 12.4059Z" fill="white"/>
<path d="M31.9707 13.0694V12.9995C31.9707 5.85155 37.3427 0 45.0396 0C49.7676 0 52.5943 1.58153 54.9231 3.87871L51.4142 7.93634C49.4795 6.17685 47.5105 5.1005 45.0043 5.1005C40.7809 5.1005 37.7338 8.61947 37.7338 12.9278V13.0005C37.7338 17.3088 40.7056 20.9005 45.0043 20.9005C47.8692 20.9005 49.6255 19.7514 51.5907 17.9575L55.0995 21.5099C52.5237 24.2769 49.6579 26 44.8249 26C37.4486 26 31.9707 20.2891 31.9707 13.0703V13.0694Z" fill="white"/>
<path d="M85.6985 22.997L74.8935 1.09483C74.4785 0.254797 73.4634 -0.0896368 72.6258 0.326554C71.7882 0.741789 71.4447 1.76074 71.8597 2.60078L82.6648 24.502C82.9596 25.1 83.5596 25.4473 84.1826 25.4473C84.4345 25.4473 84.6911 25.3908 84.9324 25.2712C85.7701 24.856 86.1135 23.8371 85.6985 22.997Z" fill="#0083CC"/>
<path d="M67.0546 0.368164L54.7842 25.2401H58.5611L68.435 5.2266L74.2993 17.1134H67.2912L70.323 10.9681L68.435 7.14012L60.6122 22.9965C60.1972 23.8366 60.5406 24.8546 61.3792 25.2708C61.6206 25.3904 61.8762 25.4468 62.1281 25.4468C62.7511 25.4468 63.3511 25.1005 63.6459 24.5015L65.6159 20.508H75.9735L78.308 25.2401H82.0849L69.8135 0.368164H67.0536H67.0546Z" fill="#0083CC"/>
<path d="M3.31325 31.8182V42H1.46879V31.8182H3.31325ZM13.9578 31.8182V42H12.3172L7.51957 35.0646H7.43505V42H5.59059V31.8182H7.24116L12.0338 38.7585H12.1233V31.8182H13.9578ZM15.8001 33.3643V31.8182H23.9237V33.3643H20.7767V42H18.9471V33.3643H15.8001ZM25.7697 42V31.8182H32.3919V33.3643H27.6142V36.1286H32.0488V37.6747H27.6142V40.4538H32.4317V42H25.7697ZM34.5536 42V31.8182H38.3718C39.154 31.8182 39.8103 31.9541 40.3406 32.2259C40.8742 32.4976 41.2769 32.8788 41.5487 33.3693C41.8238 33.8565 41.9613 34.425 41.9613 35.0746C41.9613 35.7275 41.8221 36.2943 41.5437 36.7749C41.2686 37.2521 40.8626 37.6217 40.3257 37.8835C39.7887 38.142 39.1292 38.2713 38.347 38.2713H35.6275V36.7401H38.0984C38.5558 36.7401 38.9303 36.6771 39.222 36.5511C39.5136 36.4219 39.7291 36.2346 39.8683 35.9893C40.0108 35.7408 40.082 35.4358 40.082 35.0746C40.082 34.7133 40.0108 34.4051 39.8683 34.1499C39.7257 33.8913 39.5087 33.6958 39.217 33.5632C38.9253 33.4273 38.5491 33.3594 38.0884 33.3594H36.3981V42H34.5536ZM39.8136 37.3864L42.3342 42H40.2759L37.8001 37.3864H39.8136ZM52.3063 31.8182V42H50.6657L45.8681 35.0646H45.7836V42H43.9391V31.8182H45.5897L50.3823 38.7585H50.4718V31.8182H52.3063ZM55.9036 42H53.9348L57.5194 31.8182H59.7963L63.3858 42H61.4171L58.6976 33.9062H58.6181L55.9036 42ZM55.9682 38.0078H61.3375V39.4893H55.9682V38.0078ZM63.329 33.3643V31.8182H71.4526V33.3643H68.3056V42H66.476V33.3643H63.329ZM75.1431 31.8182V42H73.2986V31.8182H75.1431ZM86.5184 36.9091C86.5184 38.0062 86.3129 38.9458 85.902 39.728C85.4943 40.5069 84.9375 41.1035 84.2315 41.5178C83.5289 41.9321 82.7317 42.1392 81.8402 42.1392C80.9486 42.1392 80.1498 41.9321 79.4439 41.5178C78.7412 41.1001 78.1844 40.5019 77.7734 39.723C77.3657 38.9408 77.1619 38.0028 77.1619 36.9091C77.1619 35.812 77.3657 34.8741 77.7734 34.0952C78.1844 33.313 78.7412 32.7147 79.4439 32.3004C80.1498 31.8861 80.9486 31.679 81.8402 31.679C82.7317 31.679 83.5289 31.8861 84.2315 32.3004C84.9375 32.7147 85.4943 33.313 85.902 34.0952C86.3129 34.8741 86.5184 35.812 86.5184 36.9091ZM84.664 36.9091C84.664 36.1368 84.5431 35.4856 84.3011 34.9553C84.0625 34.4216 83.731 34.0189 83.3068 33.7472C82.8826 33.4721 82.3937 33.3345 81.8402 33.3345C81.2867 33.3345 80.7978 33.4721 80.3736 33.7472C79.9493 34.0189 79.6162 34.4216 79.3743 34.9553C79.1356 35.4856 79.0163 36.1368 79.0163 36.9091C79.0163 37.6813 79.1356 38.3343 79.3743 38.8679C79.6162 39.3982 79.9493 39.8009 80.3736 40.076C80.7978 40.3478 81.2867 40.4837 81.8402 40.4837C82.3937 40.4837 82.8826 40.3478 83.3068 40.076C83.731 39.8009 84.0625 39.3982 84.3011 38.8679C84.5431 38.3343 84.664 37.6813 84.664 36.9091ZM96.9094 31.8182V42H95.2688L90.4712 35.0646H90.3867V42H88.5422V31.8182H90.1928L94.9854 38.7585H95.0749V31.8182H96.9094ZM100.507 42H98.538L102.122 31.8182H104.399L107.989 42H106.02L103.301 33.9062H103.221L100.507 42ZM100.571 38.0078H105.941V39.4893H100.571V38.0078ZM109.61 42V31.8182H111.455V40.4538H115.939V42H109.61Z" fill="white"/>
</svg>
