<svg width="24" height="24" viewBox="0 0 24 24" fill="none" xmlns="http://www.w3.org/2000/svg">
<path d="M7.42165 19.8218C7.49512 20.3099 7.86949 20.6885 8.35015 20.7636C8.37047 20.7671 8.3908 20.7694 8.41112 20.7725V21.2954C8.41112 21.6839 8.72726 22 9.1157 22H10.1208C10.5092 22 10.8254 21.6839 10.8254 21.2954V21.0531C12.006 21.1325 12.8352 21.1301 13.9575 21.0621V21.2954C13.9575 21.6839 14.2737 22 14.6621 22H15.6672C16.0557 22 16.3718 21.6839 16.3718 21.2954V20.8034C16.3917 20.8003 16.4117 20.7983 16.4316 20.7952C16.9142 20.7171 17.2874 20.3384 17.3605 19.8526L17.7044 17.5236C17.7224 17.4016 17.6379 17.2879 17.516 17.2699C17.3961 17.252 17.2804 17.3364 17.2624 17.4583L16.9185 19.787C16.8747 20.0793 16.65 20.3075 16.3605 20.3544C13.6973 20.7784 11.0071 20.769 8.42245 20.3231C8.13639 20.2786 7.90661 20.0453 7.86324 19.7565L6.55137 10.8564C8.49006 11.3761 10.4401 11.6391 12.3913 11.6391C14.3425 11.6391 16.2956 11.3757 18.2355 10.8556L17.8724 13.3187C17.8544 13.4406 17.9389 13.5543 18.0608 13.5723C18.1831 13.5903 18.2964 13.5059 18.3144 13.384L18.6931 10.8146C18.7146 10.6887 18.711 10.5801 18.7118 10.5578V5.35645C18.7118 4.89298 18.6247 4.44006 18.4523 4.00942C18.443 3.98636 18.053 3.01135 18.0776 3.07349C17.8279 2.44862 17.219 2.03126 16.5398 2.03126L8.24308 2C7.5932 2 6.96716 2.39235 6.70495 3.04222L6.32979 3.97815C6.15746 4.40841 6.07031 4.86133 6.07031 5.32519V10.5461C6.07031 10.6153 6.07617 10.6879 6.08829 10.7774L7.42165 19.8218ZM15.9251 21.2954C15.9251 21.4377 15.8095 21.5533 15.6672 21.5533H14.6621C14.5199 21.5533 14.4042 21.4377 14.4042 21.2954V21.0352C14.9114 20.9953 15.4187 20.9359 15.9251 20.8655V21.2954ZM10.3787 21.2954C10.3787 21.4377 10.263 21.5533 10.1208 21.5533H9.1157C8.97346 21.5533 8.85778 21.4377 8.85778 21.2954V20.8398C9.36151 20.9156 9.86835 20.9804 10.3787 21.0242V21.2954ZM6.51776 10.3874V5.32597C6.51776 4.91956 6.59436 4.52213 6.7452 4.14463L7.11996 3.20792C7.28175 2.80385 7.70888 2.44706 8.24269 2.44706L16.5391 2.47793C17.0424 2.47793 17.4852 2.79095 17.6622 3.23957C17.6716 3.26263 18.0619 4.23764 18.0373 4.1755C18.1882 4.553 18.2648 4.95043 18.2648 5.35685V10.387C14.3663 11.4593 10.4158 11.4597 6.51737 10.387L6.51776 10.3874Z" fill="#222222" stroke="#222222" stroke-width="0.2"/>
<path d="M16.0257 3.89844H8.91692C8.22172 3.89844 7.65625 4.4639 7.65625 5.15911V7.60933C7.65625 8.30454 8.22172 8.87001 8.91692 8.87001H16.0257C16.7209 8.87001 17.2864 8.30454 17.2864 7.60933V5.15911C17.2864 4.4639 16.7209 3.89844 16.0257 3.89844ZM16.8401 7.60933C16.8401 8.05835 16.4747 8.42334 16.0261 8.42334H8.91731C8.4683 8.42334 8.10331 8.05796 8.10331 7.60933V5.15911C8.10331 4.7101 8.46869 4.34511 8.91731 4.34511H16.0261C16.4751 4.34511 16.8401 4.71049 16.8401 5.15911V7.60933Z" fill="#222222" stroke="#222222" stroke-width="0.2"/>
<path d="M9.71377 5.18359C9.05335 5.18359 8.51562 5.72092 8.51562 6.38174C8.51562 7.04256 9.05295 7.57989 9.71377 7.57989C10.3746 7.57989 10.9119 7.04256 10.9119 6.38174C10.9119 5.72092 10.3746 5.18359 9.71377 5.18359ZM9.71377 7.13283C9.29954 7.13283 8.96229 6.79597 8.96229 6.38135C8.96229 5.96673 9.29915 5.62987 9.71377 5.62987C10.1284 5.62987 10.4653 5.96673 10.4653 6.38135C10.4653 6.79597 10.1284 7.13283 9.71377 7.13283Z" fill="#222222" stroke="#222222" stroke-width="0.2"/>
<path d="M12.4853 5.10156H11.52C11.3965 5.10156 11.2969 5.2016 11.2969 5.3247C11.2969 5.4478 11.3969 5.54784 11.52 5.54784H12.4853C12.6087 5.54784 12.7084 5.4478 12.7084 5.3247C12.7084 5.2016 12.6084 5.10156 12.4853 5.10156Z" fill="#222222" stroke="#222222" stroke-width="0.2"/>
<path d="M12.4853 6.16016H11.52C11.3965 6.16016 11.2969 6.2602 11.2969 6.38329C11.2969 6.50639 11.3969 6.60643 11.52 6.60643H12.4853C12.6087 6.60643 12.7084 6.50639 12.7084 6.38329C12.7084 6.2602 12.6084 6.16016 12.4853 6.16016Z" fill="#222222" stroke="#222222" stroke-width="0.2"/>
<path d="M12.4853 7.21484H11.52C11.3965 7.21484 11.2969 7.31489 11.2969 7.43798C11.2969 7.56108 11.3969 7.66112 11.52 7.66112H12.4853C12.6087 7.66112 12.7084 7.56108 12.7084 7.43798C12.7084 7.31489 12.6084 7.21484 12.4853 7.21484Z" fill="#222222" stroke="#222222" stroke-width="0.2"/>
<path d="M14.2274 5.10156H13.2622C13.1387 5.10156 13.0391 5.2016 13.0391 5.3247C13.0391 5.4478 13.1391 5.54784 13.2622 5.54784H14.2274C14.3509 5.54784 14.4506 5.4478 14.4506 5.3247C14.4506 5.2016 14.3505 5.10156 14.2274 5.10156Z" fill="#222222" stroke="#222222" stroke-width="0.2"/>
<path d="M14.2274 6.16016H13.2622C13.1387 6.16016 13.0391 6.2602 13.0391 6.38329C13.0391 6.50639 13.1391 6.60643 13.2622 6.60643H14.2274C14.3509 6.60643 14.4506 6.50639 14.4506 6.38329C14.4506 6.2602 14.3505 6.16016 14.2274 6.16016Z" fill="#222222" stroke="#222222" stroke-width="0.2"/>
<path d="M14.2274 7.21484H13.2622C13.1387 7.21484 13.0391 7.31489 13.0391 7.43798C13.0391 7.56108 13.1391 7.66112 13.2622 7.66112H14.2274C14.3509 7.66112 14.4506 7.56108 14.4506 7.43798C14.4506 7.31489 14.3505 7.21484 14.2274 7.21484Z" fill="#222222" stroke="#222222" stroke-width="0.2"/>
<path d="M15.9774 5.10156H15.0122C14.8887 5.10156 14.7891 5.2016 14.7891 5.3247C14.7891 5.4478 14.8891 5.54784 15.0122 5.54784H15.9774C16.1009 5.54784 16.2006 5.4478 16.2006 5.3247C16.2006 5.2016 16.1005 5.10156 15.9774 5.10156Z" fill="#222222" stroke="#222222" stroke-width="0.2"/>
<path d="M15.9774 6.16016H15.0122C14.8887 6.16016 14.7891 6.2602 14.7891 6.38329C14.7891 6.50639 14.8891 6.60643 15.0122 6.60643H15.9774C16.1009 6.60643 16.2006 6.50639 16.2006 6.38329C16.2006 6.2602 16.1005 6.16016 15.9774 6.16016Z" fill="#222222" stroke="#222222" stroke-width="0.2"/>
<path d="M15.9774 7.21484H15.0122C14.8887 7.21484 14.7891 7.31489 14.7891 7.43798C14.7891 7.56108 14.8891 7.66112 15.0122 7.66112H15.9774C16.1009 7.66112 16.2006 7.56108 16.2006 7.43798C16.2006 7.31489 16.1005 7.21484 15.9774 7.21484Z" fill="#222222" stroke="#222222" stroke-width="0.2"/>
<path d="M15.6351 12.5591C15.6351 12.4356 15.535 12.3359 15.4119 12.3359H9.43408C9.31059 12.3359 9.21094 12.436 9.21094 12.5591C9.21094 12.6822 9.31098 12.7822 9.43408 12.7822H15.4119C15.5354 12.7822 15.6351 12.6822 15.6351 12.5591Z" fill="#222222" stroke="#222222" stroke-width="0.2"/>
<path d="M15.0314 13.9888C15.0314 13.8653 14.9314 13.7656 14.8083 13.7656H10.0513C9.92777 13.7656 9.82812 13.8657 9.82812 13.9888C9.82812 14.1119 9.92817 14.2119 10.0513 14.2119H14.8083C14.9318 14.2119 15.0314 14.1119 15.0314 13.9888Z" fill="#222222" stroke="#222222" stroke-width="0.2"/>
<path d="M14.8774 15.4224C14.8774 15.2989 14.7774 15.1992 14.6543 15.1992H10.1919C10.0684 15.1992 9.96875 15.2993 9.96875 15.4224C9.96875 15.5455 10.0688 15.6455 10.1919 15.6455H14.6543C14.7778 15.6455 14.8774 15.5455 14.8774 15.4224Z" fill="#222222" stroke="#222222" stroke-width="0.2"/>
<path d="M14.2156 16.6289H10.6372C10.5137 16.6289 10.4141 16.7289 10.4141 16.852C10.4141 16.9751 10.5141 17.0752 10.6372 17.0752H14.2156C14.3391 17.0752 14.4388 16.9751 14.4388 16.852C14.4388 16.7289 14.3387 16.6289 14.2156 16.6289Z" fill="#222222" stroke="#222222" stroke-width="0.2"/>
<path d="M14.4388 18.2856C14.4388 18.1622 14.3387 18.0625 14.2156 18.0625H10.6372C10.5137 18.0625 10.4141 18.1625 10.4141 18.2856C10.4141 18.4087 10.5141 18.5088 10.6372 18.5088H14.2156C14.3391 18.5088 14.4388 18.4087 14.4388 18.2856Z" fill="#222222" stroke="#222222" stroke-width="0.2"/>
<path d="M10.8716 19.4922C10.7481 19.4922 10.6484 19.5922 10.6484 19.7153C10.6484 19.8384 10.7485 19.9385 10.8716 19.9385H13.9869C14.1104 19.9385 14.2101 19.8384 14.2101 19.7153C14.2101 19.5922 14.11 19.4922 13.9869 19.4922H10.8716Z" fill="#222222" stroke="#222222" stroke-width="0.2"/>
<path d="M19.5356 15.5166H23.1907C23.3141 15.5166 23.4138 15.4165 23.4138 15.2935C23.4138 15.1704 23.3138 15.0703 23.1907 15.0703H19.5356C19.4121 15.0703 19.3125 15.1704 19.3125 15.2935C19.3125 15.4165 19.4125 15.5166 19.5356 15.5166Z" fill="#222222" stroke="#222222" stroke-width="0.2"/>
<path d="M19.5356 14.1088H22.606C23.2532 14.1088 23.7796 13.5824 23.7796 12.9352C23.7796 12.2881 23.2532 11.7617 22.606 11.7617H21.8749C21.7514 11.7617 21.6517 11.8618 21.6517 11.9849C21.6517 12.108 21.7518 12.208 21.8749 12.208H22.606C23.007 12.208 23.3333 12.5343 23.3333 12.9352C23.3333 13.3362 23.007 13.6625 22.606 13.6625H19.5356C19.4121 13.6625 19.3125 13.7625 19.3125 13.8856C19.3125 14.0087 19.4125 14.1088 19.5356 14.1088Z" fill="#222222" stroke="#222222" stroke-width="0.2"/>
<path d="M19.5356 16.8291H22.606C23.007 16.8291 23.3333 17.1554 23.3333 17.5563C23.3333 17.9573 23.007 18.2836 22.606 18.2836H21.8749C21.7514 18.2836 21.6517 18.3836 21.6517 18.5067C21.6517 18.6298 21.7518 18.7299 21.8749 18.7299H22.606C23.2532 18.7299 23.7796 18.2035 23.7796 17.5563C23.7796 16.9092 23.2532 16.3828 22.606 16.3828H19.5356C19.4121 16.3828 19.3125 16.4829 19.3125 16.606C19.3125 16.729 19.4125 16.8291 19.5356 16.8291Z" fill="#222222" stroke="#222222" stroke-width="0.2"/>
<path d="M5.24534 15.0703H1.59033C1.46684 15.0703 1.36719 15.1704 1.36719 15.2935C1.36719 15.4165 1.46723 15.5166 1.59033 15.5166H5.24534C5.36883 15.5166 5.46848 15.4165 5.46848 15.2935C5.46848 15.1704 5.36844 15.0703 5.24534 15.0703Z" fill="#222222" stroke="#222222" stroke-width="0.2"/>
<path d="M2.17353 14.1088H5.24393C5.36742 14.1088 5.46707 14.0087 5.46707 13.8856C5.46707 13.7625 5.36703 13.6625 5.24393 13.6625H2.17353C1.77258 13.6625 1.44667 13.3362 1.44667 12.9352C1.44667 12.5343 1.77297 12.208 2.17353 12.208H2.90469C3.02818 12.208 3.12783 12.108 3.12783 11.9849C3.12783 11.8618 3.02778 11.7617 2.90469 11.7617H2.17353C1.52639 11.7617 1 12.2881 1 12.9352C1 13.5824 1.52639 14.1088 2.17353 14.1088Z" fill="#222222" stroke="#222222" stroke-width="0.2"/>
<path d="M2.17353 18.7299H2.90469C3.02818 18.7299 3.12783 18.6298 3.12783 18.5067C3.12783 18.3836 3.02778 18.2836 2.90469 18.2836H2.17353C1.77258 18.2836 1.44667 17.9573 1.44667 17.5563C1.44667 17.1554 1.77297 16.8291 2.17353 16.8291H5.24393C5.36742 16.8291 5.46707 16.729 5.46707 16.606C5.46707 16.4829 5.36703 16.3828 5.24393 16.3828H2.17353C1.52639 16.3828 1 16.9092 1 17.5563C1 18.2035 1.52639 18.7299 2.17353 18.7299Z" fill="#222222" stroke="#222222" stroke-width="0.2"/>
</svg>
