<svg width="37" height="12" viewBox="0 0 37 12" fill="none" xmlns="http://www.w3.org/2000/svg">
<path d="M1 4.77344C0.447715 4.77344 0 5.22115 0 5.77344C0 6.32572 0.447715 6.77344 1 6.77344V5.77344V4.77344ZM36.7735 5.77344L31 -6.53267e-05L25.2265 5.77344L31 11.5469L36.7735 5.77344ZM2.875 6.77344C3.42728 6.77344 3.875 6.32572 3.875 5.77344C3.875 5.22115 3.42728 4.77344 2.875 4.77344V5.77344V6.77344ZM6.625 4.77344C6.07272 4.77344 5.625 5.22115 5.625 5.77344C5.625 6.32572 6.07272 6.77344 6.625 6.77344V5.77344V4.77344ZM10.375 6.77344C10.9273 6.77344 11.375 6.32572 11.375 5.77344C11.375 5.22115 10.9273 4.77344 10.375 4.77344V5.77344V6.77344ZM14.125 4.77344C13.5727 4.77344 13.125 5.22115 13.125 5.77344C13.125 6.32572 13.5727 6.77344 14.125 6.77344V5.77344V4.77344ZM17.875 6.77344C18.4273 6.77344 18.875 6.32572 18.875 5.77344C18.875 5.22115 18.4273 4.77344 17.875 4.77344V5.77344V6.77344ZM21.625 4.77344C21.0727 4.77344 20.625 5.22115 20.625 5.77344C20.625 6.32572 21.0727 6.77344 21.625 6.77344V5.77344V4.77344ZM25.375 6.77344C25.9273 6.77344 26.375 6.32572 26.375 5.77344C26.375 5.22115 25.9273 4.77344 25.375 4.77344V5.77344V6.77344ZM29.125 4.77344C28.5727 4.77344 28.125 5.22115 28.125 5.77344C28.125 6.32572 28.5727 6.77344 29.125 6.77344V5.77344V4.77344ZM1 5.77344V6.77344H2.875V5.77344V4.77344H1V5.77344ZM6.625 5.77344V6.77344H10.375V5.77344V4.77344H6.625V5.77344ZM14.125 5.77344V6.77344H17.875V5.77344V4.77344H14.125V5.77344ZM21.625 5.77344V6.77344H25.375V5.77344V4.77344H21.625V5.77344ZM29.125 5.77344V6.77344H31V5.77344V4.77344H29.125V5.77344Z" fill="url(#paint0_linear_62105_14988)"/>
<defs>
<linearGradient id="paint0_linear_62105_14988" x1="-0.0714286" y1="7.27344" x2="32.0714" y2="7.27344" gradientUnits="userSpaceOnUse">
<stop stop-color="#DDDDDD"/>
<stop offset="1" stop-color="#294DC7"/>
</linearGradient>
</defs>
</svg>
