<svg width="24" height="24" viewBox="0 0 24 24" fill="none" xmlns="http://www.w3.org/2000/svg">
<path d="M10.4453 20.9717H19.7549C19.8389 20.9718 19.9194 21.0046 19.9785 21.0635C20.0377 21.1225 20.0703 21.2031 20.0703 21.2861C20.0702 21.369 20.0376 21.4489 19.9785 21.5078C19.9194 21.5667 19.8389 21.5995 19.7549 21.5996H10.4453C10.3611 21.5996 10.2799 21.5669 10.2207 21.5078C10.1617 21.4489 10.129 21.369 10.1289 21.2861C10.1289 21.2031 10.1615 21.1225 10.2207 21.0635C10.2799 21.0044 10.3611 20.9717 10.4453 20.9717ZM7.07617 2.45605C7.33208 2.3686 7.6124 2.38472 7.85645 2.50098L7.86426 2.50488L7.87305 2.50781L10.874 3.77148H10.875L10.9102 3.78711C11.1537 3.90955 11.3378 4.12425 11.4238 4.38184C11.51 4.6402 11.4902 4.92236 11.3682 5.16602L11.3643 5.17383L10.0928 7.52441L9.99414 7.70703L10.0869 7.89258L12.9316 13.6064L13.042 13.8291H19.0381C19.3121 13.8291 19.5751 13.937 19.7686 14.1299C19.962 14.3229 20.0703 14.585 20.0703 14.8574V17.7139C20.0703 17.9863 19.962 18.2484 19.7686 18.4414C19.5751 18.6343 19.3121 18.7432 19.0381 18.7432H10.6328C10.441 18.7438 10.2529 18.6903 10.0898 18.5898C9.92684 18.4894 9.795 18.3457 9.70996 18.1748V18.1729L4.50879 7.81738C4.43745 7.67408 4.4004 7.51634 4.40039 7.35645C4.40039 7.19725 4.4371 7.04027 4.50781 6.89746L6.4873 2.96875L6.48828 2.96777C6.60927 2.72725 6.82038 2.54355 7.07617 2.45605Z" stroke="#222222" stroke-width="0.8"/>
</svg>
